<?xml version="1.0" encoding="utf-8"?>
<!-- Generator: Adobe Illustrator 26.3.1, SVG Export Plug-In . SVG Version: 6.00 Build 0)  -->
<svg version="1.1"
     id="cvfy"
     xmlns="http://www.w3.org/2000/svg" xmlns:xlink="http://www.w3.org/1999/xlink" x="0px" y="0px" viewBox="0 0 117.4 121.2"
     style="enable-background:new 0 0 117.4 121.2;" xml:space="preserve">
<style type="text/css">
	.st0{clip-path:url(#SVGID_00000115496520621299370510000011939458326559757971_);fill:#898B8D;}

		.st1{clip-path:url(#SVGID_00000041974290578635399410000006223722238194022333_);fill:url(#SVGID_00000067925010293473284880000017991655186128336262_);}

		.st2{clip-path:url(#SVGID_00000101811774280641635860000008840104193189068176_);fill:url(#SVGID_00000136388060655906169030000003012420445925337514_);}
	.st3{fill:#403F41;}
	.st4{clip-path:url(#SVGID_00000094575975259318667390000017744600503820943536_);fill:#898B8D;}

		.st5{clip-path:url(#SVGID_00000178921304786708172980000003081759035503061661_);fill:url(#SVGID_00000173146323748301847550000002158083288944985245_);}

		.st6{clip-path:url(#SVGID_00000145761277313104040080000000400726261201231520_);fill:url(#SVGID_00000010992674184418816090000001398928647632029067_);}
	.st7{clip-path:url(#SVGID_00000096769328633369657020000005336130780650686897_);fill:#58595B;}

		.st8{clip-path:url(#SVGID_00000125601404562021826380000001945048809061780154_);fill:url(#SVGID_00000075862801710568348610000018048710518860310431_);}
	.st9{clip-path:url(#SVGID_00000002350614135630571140000007246886319303145876_);fill:#58595B;}

		.st10{clip-path:url(#SVGID_00000070835651402483274210000009854929985199274393_);fill:url(#SVGID_00000060029570217632203430000018164671361971865007_);}
	.st11{clip-path:url(#SVGID_00000121254815974001302070000007648852034410422952_);fill:#58595B;}

		.st12{clip-path:url(#SVGID_00000041272453522838065690000011351327740288953501_);fill:url(#SVGID_00000040536669365637539690000012710963472622991268_);}
	.st13{clip-path:url(#SVGID_00000093134819393840538110000016894526964596758684_);fill:#58595B;}

		.st14{clip-path:url(#SVGID_00000074407823620709166720000006226723587279588238_);fill:url(#SVGID_00000145043257141075646480000001667797807345499524_);}
	.st15{fill:url(#SVGID_00000023282604317290724960000004256535179683477158_);}
	.st16{fill:url(#SVGID_00000177484609087280889420000010496186842176513687_);}
	.st17{fill:url(#SVGID_00000008833102125476834180000013604947355629199532_);}
	.st18{fill:url(#SVGID_00000090979797876106328180000009179791843248665506_);}
	.st19{fill:#E24525;}
</style>
<g transform="matrix(.9957 0 0 1 -29.69 -15.7)">
	<g>
		<defs>
			<path id="SVGID_1_" d="M39.8,35.1v-4.8c0-0.4,0.1-1.1,0.1-1.1l0.2-0.5v-0.2l0.2-0.4l0.1-0.1l0.1-0.2l0.1-0.1v-0.1l0.2-0.2v-0.1
				l0.7-0.7l0.2-0.1h0.1l0.3-0.2h0.3L43,26c0.4-0.1,0.7-0.1,1.1-0.1h94.6v9.2h9V16.7H44.1c-7.3,0-13.3,6.1-13.3,13.6v4.8L39.8,35.1z
				"/>
		</defs>
		<clipPath id="SVGID_00000010989355062752595290000012202849693976562828_">
			<use xlink:href="#SVGID_1_"  style="overflow:visible;"/>
		</clipPath>

			<rect x="31.2" y="15.7" style="clip-path:url(#SVGID_00000010989355062752595290000012202849693976562828_);fill:#898B8D;" width="117.1" height="12"/>
	</g>
	<g>
		<defs>
			<path id="SVGID_00000071545074812063891280000011998292829601379982_" d="M39.8,35.1v-4.8c0-0.4,0.1-1.1,0.1-1.1l0.2-0.5v-0.2
				l0.2-0.4l0.1-0.1l0.1-0.2l0.1-0.1v-0.1l0.2-0.2v-0.1l0.7-0.7l0.2-0.1h0.1l0.3-0.2h0.3L43,26c0.4-0.1,0.7-0.1,1.1-0.1h94.6v9.2h9
				V16.7H44.1c-7.3,0-13.3,6.1-13.3,13.6v4.8L39.8,35.1z"/>
		</defs>
		<clipPath id="SVGID_00000108279893388721598810000005250306676651790257_">
			<use xlink:href="#SVGID_00000071545074812063891280000011998292829601379982_"  style="overflow:visible;"/>
		</clipPath>

			<linearGradient id="SVGID_00000168801245537616786640000005545130858031198865_" gradientUnits="userSpaceOnUse" x1="-1792.7523" y1="447.9805" x2="-1772.7523" y2="447.9805" gradientTransform="matrix(0.1861 0.356 0.6751 -0.353 172.5871 820.7659)">
			<stop  offset="0" style="stop-color:#737373"/>
			<stop  offset="1" style="stop-color:#333333"/>
		</linearGradient>

			<polygon style="clip-path:url(#SVGID_00000108279893388721598810000005250306676651790257_);fill:url(#SVGID_00000168801245537616786640000005545130858031198865_);" points="
			134.8,28 148,20.9 151.7,28.1 138.5,35.2 		"/>
	</g>
	<g>
		<defs>
			<path id="SVGID_00000042730244750724698100000017244996419455211685_" d="M39.8,35.1v-4.8c0-0.4,0.1-1.1,0.1-1.1l0.2-0.5v-0.2
				l0.2-0.4l0.1-0.1l0.1-0.2l0.1-0.1v-0.1l0.2-0.2v-0.1l0.7-0.7l0.2-0.1h0.1l0.3-0.2h0.3L43,26c0.4-0.1,0.7-0.1,1.1-0.1h94.6v9.2h9
				V16.7H44.1c-7.3,0-13.3,6.1-13.3,13.6v4.8L39.8,35.1z"/>
		</defs>
		<clipPath id="SVGID_00000138554834182949463310000009076006687215990172_">
			<use xlink:href="#SVGID_00000042730244750724698100000017244996419455211685_"  style="overflow:visible;"/>
		</clipPath>

			<linearGradient id="SVGID_00000048478759808709923700000006319214786257191315_" gradientUnits="userSpaceOnUse" x1="-3263.7646" y1="-425.9392" x2="-3242.7646" y2="-425.9392" gradientTransform="matrix(-0.1853 0.3564 0.5495 0.2858 -332.1863 1309.3304)">
			<stop  offset="0" style="stop-color:#737373"/>
			<stop  offset="1" style="stop-color:#333333"/>
		</linearGradient>

			<polygon style="clip-path:url(#SVGID_00000138554834182949463310000009076006687215990172_);fill:url(#SVGID_00000048478759808709923700000006319214786257191315_);" points="
			32.9,22.1 43.6,27.9 39.9,35.1 29.2,29.4 		"/>
	</g>
	<rect x="48.8" y="35.1" class="st3" width="80.9" height="9.2"/>
	<rect x="48.8" y="109" class="st3" width="80.9" height="9.2"/>
	<g>
		<defs>
			<path id="SVGID_00000024714348801216004380000003411866131369129095_" d="M138.7,118.2v4.8c0,0.4-0.1,1.1-0.1,1.1l-0.2,0.5v0.2
				l-0.2,0.4l-0.1,0.1l-0.1,0.2l-0.1,0.1v0.1l-0.2,0.2v0.1l-0.5,0.5h-0.1l-0.1,0.1l-0.2,0.1l-0.1,0.1l-0.3,0.2h-0.3l-0.5,0.2
				c-0.4,0.1-0.7,0.1-1.1,0.1H39.8v-9.2h-9v18.4h103.6c7.3,0,13.3-6.1,13.3-13.6v-4.8L138.7,118.2L138.7,118.2z"/>
		</defs>
		<clipPath id="SVGID_00000007392114086151881690000008213289892047877042_">
			<use xlink:href="#SVGID_00000024714348801216004380000003411866131369129095_"  style="overflow:visible;"/>
		</clipPath>

			<rect x="30.2" y="125.6" style="clip-path:url(#SVGID_00000007392114086151881690000008213289892047877042_);fill:#898B8D;" width="117.1" height="12"/>
	</g>
	<g>
		<defs>
			<path id="SVGID_00000038397373686438631730000015541795463924133272_" d="M138.7,118.2v4.8c0,0.4-0.1,1.1-0.1,1.1l-0.2,0.5v0.2
				l-0.2,0.4l-0.1,0.1l-0.1,0.2l-0.1,0.1v0.1l-0.2,0.2v0.1l-0.5,0.5h-0.1l-0.1,0.1l-0.2,0.1l-0.1,0.1l-0.3,0.2h-0.3l-0.5,0.2
				c-0.4,0.1-0.7,0.1-1.1,0.1H39.8v-9.2h-9v18.4h103.6c7.3,0,13.3-6.1,13.3-13.6v-4.8L138.7,118.2L138.7,118.2z"/>
		</defs>
		<clipPath id="SVGID_00000041279458071509689340000006850442250291511940_">
			<use xlink:href="#SVGID_00000038397373686438631730000015541795463924133272_"  style="overflow:visible;"/>
		</clipPath>

			<linearGradient id="SVGID_00000163755553609138931930000014397389336813917855_" gradientUnits="userSpaceOnUse" x1="-413.3372" y1="-2114.5654" x2="-392.3372" y2="-2114.5654" gradientTransform="matrix(-0.1861 -0.356 -0.6751 0.353 -1467.2535 728.334)">
			<stop  offset="0" style="stop-color:#737373"/>
			<stop  offset="1" style="stop-color:#333333"/>
		</linearGradient>

			<polygon style="clip-path:url(#SVGID_00000041279458071509689340000006850442250291511940_);fill:url(#SVGID_00000163755553609138931930000014397389336813917855_);" points="
			43.7,125.4 30.5,132.5 26.8,125.2 40,118.1 		"/>
	</g>
	<g>
		<defs>
			<path id="SVGID_00000071556292802947692880000009797700979448102053_" d="M138.7,118.2v4.8c0,0.4-0.1,1.1-0.1,1.1l-0.2,0.5v0.2
				l-0.2,0.4l-0.1,0.1l-0.1,0.2l-0.1,0.1v0.1l-0.2,0.2v0.1l-0.5,0.5h-0.1l-0.1,0.1l-0.2,0.1l-0.1,0.1l-0.3,0.2h-0.3l-0.5,0.2
				c-0.4,0.1-0.7,0.1-1.1,0.1H39.8v-9.2h-9v18.4h103.6c7.3,0,13.3-6.1,13.3-13.6v-4.8L138.7,118.2L138.7,118.2z"/>
		</defs>
		<clipPath id="SVGID_00000004538700592299657870000002958392747835851427_">
			<use xlink:href="#SVGID_00000071556292802947692880000009797700979448102053_"  style="overflow:visible;"/>
		</clipPath>

			<linearGradient id="SVGID_00000031173223029913634790000011671595519948002443_" gradientUnits="userSpaceOnUse" x1="1511.6272" y1="-1496.6436" x2="1531.6272" y2="-1496.6436" gradientTransform="matrix(0.1853 -0.3564 -0.5495 -0.2858 -962.1802 239.1695)">
			<stop  offset="0" style="stop-color:#737373"/>
			<stop  offset="1" style="stop-color:#333333"/>
		</linearGradient>

			<polygon style="clip-path:url(#SVGID_00000004538700592299657870000002958392747835851427_);fill:url(#SVGID_00000031173223029913634790000011671595519948002443_);" points="
			145.7,131.2 134.9,125.4 138.6,118.2 149.4,123.9 		"/>
	</g>
	<g>
		<defs>
			<rect id="SVGID_00000013189272570645706630000016530618900356949405_" x="39.9" y="53.6" width="34.5" height="9.2"/>
		</defs>
		<clipPath id="SVGID_00000042726937262895203030000006315764734474122421_">
			<use xlink:href="#SVGID_00000013189272570645706630000016530618900356949405_"  style="overflow:visible;"/>
		</clipPath>

			<rect x="39.8" y="53.6" style="clip-path:url(#SVGID_00000042726937262895203030000006315764734474122421_);fill:#58595B;" width="34.6" height="9.2"/>
	</g>
	<g>
		<defs>
			<rect id="SVGID_00000165229170354715321720000017345066858649229711_" x="39.9" y="53.6" width="34.5" height="9.2"/>
		</defs>
		<clipPath id="SVGID_00000111898451468998638680000004672269753043247280_">
			<use xlink:href="#SVGID_00000165229170354715321720000017345066858649229711_"  style="overflow:visible;"/>
		</clipPath>

			<linearGradient id="SVGID_00000052823296707120240890000017638117984797053626_" gradientUnits="userSpaceOnUse" x1="2425.8064" y1="-2227.79" x2="2463.8433" y2="-2227.79" gradientTransform="matrix(-1.5145 -1.0166 -3.14 -1.519 -3235.9021 -840.6097)">
			<stop  offset="0.107" style="stop-color:#58595B"/>
			<stop  offset="1" style="stop-color:#000000"/>
		</linearGradient>

			<polygon style="clip-path:url(#SVGID_00000111898451468998638680000004672269753043247280_);fill:url(#SVGID_00000052823296707120240890000017638117984797053626_);" points="
			70.7,70.2 39.4,53.4 43.1,46 74.5,62.8 		"/>
	</g>
	<g>
		<defs>
			<rect id="SVGID_00000122681024968150576720000014188218306044366500_" x="104.2" y="53.6" width="34.5" height="9.2"/>
		</defs>
		<clipPath id="SVGID_00000050654461727105937300000000434100791000498851_">
			<use xlink:href="#SVGID_00000122681024968150576720000014188218306044366500_"  style="overflow:visible;"/>
		</clipPath>

			<rect x="104.1" y="53.6" style="clip-path:url(#SVGID_00000050654461727105937300000000434100791000498851_);fill:#58595B;" width="34.6" height="9.2"/>
	</g>
	<g>
		<defs>
			<rect id="SVGID_00000124850835110352096860000012741397399150640297_" x="104.2" y="53.6" width="34.5" height="9.2"/>
		</defs>
		<clipPath id="SVGID_00000145775427480797871190000009846924173792904893_">
			<use xlink:href="#SVGID_00000124850835110352096860000012741397399150640297_"  style="overflow:visible;"/>
		</clipPath>

			<linearGradient id="SVGID_00000073719232225822863000000009771635940273162408_" gradientUnits="userSpaceOnUse" x1="-184.64" y1="-480.835" x2="-146.603" y2="-480.835" gradientTransform="matrix(1.5145 -1.0166 3.14 -1.519 1882.2356 -840.6097)">
			<stop  offset="0.107" style="stop-color:#58595B"/>
			<stop  offset="1" style="stop-color:#000000"/>
		</linearGradient>

			<polygon style="clip-path:url(#SVGID_00000145775427480797871190000009846924173792904893_);fill:url(#SVGID_00000073719232225822863000000009771635940273162408_);" points="
			107.8,70.2 139.2,53.4 135.4,46 104.1,62.8 		"/>
	</g>
	<g>
		<defs>
			<rect id="SVGID_00000062887471401801079670000003803797875231737479_" x="104.2" y="90.5" width="34.5" height="9.2"/>
		</defs>
		<clipPath id="SVGID_00000032630670430726098630000016435101416544033707_">
			<use xlink:href="#SVGID_00000062887471401801079670000003803797875231737479_"  style="overflow:visible;"/>
		</clipPath>

			<rect x="104.1" y="90.5" style="clip-path:url(#SVGID_00000032630670430726098630000016435101416544033707_);fill:#58595B;" width="34.6" height="9.2"/>
	</g>
	<g>
		<defs>
			<rect id="SVGID_00000087392867405099855740000006994542185915264945_" x="104.2" y="90.5" width="34.5" height="9.2"/>
		</defs>
		<clipPath id="SVGID_00000129899544987410043850000004036026085764808324_">
			<use xlink:href="#SVGID_00000087392867405099855740000006994542185915264945_"  style="overflow:visible;"/>
		</clipPath>

			<linearGradient id="SVGID_00000019679396546323853970000015073615467480053918_" gradientUnits="userSpaceOnUse" x1="-3684.8235" y1="1187.0487" x2="-3646.7866" y2="1187.0487" gradientTransform="matrix(1.5145 1.0166 3.14 1.519 1942.2356 2016.2097)">
			<stop  offset="0.107" style="stop-color:#58595B"/>
			<stop  offset="1" style="stop-color:#000000"/>
		</linearGradient>

			<polygon style="clip-path:url(#SVGID_00000129899544987410043850000004036026085764808324_);fill:url(#SVGID_00000019679396546323853970000015073615467480053918_);" points="
			107.8,83.1 139.2,99.9 135.4,107.3 104.1,90.5 		"/>
	</g>
	<g>
		<defs>
			<rect id="SVGID_00000028283529453388420810000005674718211305575325_" x="39.9" y="90.5" width="34.5" height="9.2"/>
		</defs>
		<clipPath id="SVGID_00000168079774825857468680000003083651767337860265_">
			<use xlink:href="#SVGID_00000028283529453388420810000005674718211305575325_"  style="overflow:visible;"/>
		</clipPath>

			<rect x="39.8" y="90.5" style="clip-path:url(#SVGID_00000168079774825857468680000003083651767337860265_);fill:#58595B;" width="34.6" height="9.2"/>
	</g>
	<g>
		<defs>
			<rect id="SVGID_00000067943630111388775970000007783567303881207195_" x="39.9" y="90.5" width="34.5" height="9.2"/>
		</defs>
		<clipPath id="SVGID_00000078733621466340383900000009364940252887222439_">
			<use xlink:href="#SVGID_00000067943630111388775970000007783567303881207195_"  style="overflow:visible;"/>
		</clipPath>

			<linearGradient id="SVGID_00000123425523642664215020000001404376642006414995_" gradientUnits="userSpaceOnUse" x1="-1277.2495" y1="-424.2354" x2="-1238.2495" y2="-424.2354" gradientTransform="matrix(-1.5145 1.0166 -3.14 1.519 -3176.9021 2016.2097)">
			<stop  offset="0.107" style="stop-color:#58595B"/>
			<stop  offset="1" style="stop-color:#000000"/>
		</linearGradient>

			<polygon style="clip-path:url(#SVGID_00000078733621466340383900000009364940252887222439_);fill:url(#SVGID_00000123425523642664215020000001404376642006414995_);" points="
			70.7,83.1 39.4,99.9 43.1,107.3 74.5,90.5 		"/>
	</g>

		<linearGradient id="SVGID_00000043432101643437062750000005254709903370612122_" gradientUnits="userSpaceOnUse" x1="63.6178" y1="93.15" x2="107.2178" y2="93.15" gradientTransform="matrix(0.9957 0 0 -1 -32.5316 139.7)">
		<stop  offset="0.2373" style="stop-color:#A6A8AB"/>
		<stop  offset="1" style="stop-color:#404040"/>
	</linearGradient>
	<polygon style="fill:url(#SVGID_00000043432101643437062750000005254709903370612122_);" points="74.4,53.6 74.4,62.8 30.8,39.5
		30.8,30.3 	"/>

		<linearGradient id="SVGID_00000155838630580743900620000010504018869108578489_" gradientUnits="userSpaceOnUse" x1="-1584.8625" y1="93.15" x2="-1541.2625" y2="93.15" gradientTransform="matrix(-0.9957 0 0 -1 -1430.335 139.7)">
		<stop  offset="0.2373" style="stop-color:#A6A8AB"/>
		<stop  offset="1" style="stop-color:#404040"/>
	</linearGradient>
	<polygon style="fill:url(#SVGID_00000155838630580743900620000010504018869108578489_);" points="104.1,53.6 104.1,62.8
		147.7,39.5 147.7,30.3 	"/>

		<linearGradient id="SVGID_00000163750982910408838160000015393226815955416208_" gradientUnits="userSpaceOnUse" x1="-1415.6549" y1="-999.5" x2="-1372.0549" y2="-999.5" gradientTransform="matrix(-0.9957 0 0 1 -1261.8549 1106.3)">
		<stop  offset="0.2373" style="stop-color:#A6A8AB"/>
		<stop  offset="1" style="stop-color:#404040"/>
	</linearGradient>
	<polygon style="fill:url(#SVGID_00000163750982910408838160000015393226815955416208_);" points="104.1,99.8 104.1,90.5
		147.7,113.8 147.7,123.1 	"/>

		<linearGradient id="SVGID_00000019680702915605288530000015904199196606394785_" gradientUnits="userSpaceOnUse" x1="-105.5094" y1="-999.5" x2="-61.9794" y2="-999.5" gradientTransform="matrix(0.9957 0 0 1 135.9684 1106.3)">
		<stop  offset="0.2373" style="stop-color:#A6A8AB"/>
		<stop  offset="1" style="stop-color:#404040"/>
	</linearGradient>
	<polygon style="fill:url(#SVGID_00000019680702915605288530000015904199196606394785_);" points="74.4,99.8 74.4,90.5 30.8,113.8
		30.8,123.1 	"/>
	<polygon class="st19" points="104.1,81.3 104.1,81.3 104.1,81.3 104.1,81.3 129.7,95 129.7,85.7 121.4,81.3 147.7,81.3 147.7,72
		121.4,72 129.7,67.6 129.7,58.4 104.1,72 	"/>
	<polygon class="st19" points="48.8,95 74.4,81.3 74.4,81.3 74.4,81.3 74.4,81.3 74.4,72 74.4,72 74.4,72 48.8,58.4 48.8,67.6
		57.2,72 30.8,72 30.8,81.3 57.1,81.3 48.8,85.7 	"/>
</g>
</svg>
